# xmcd
#
# Track frame offsets:
#	150
#	15295
#	37805
#	60375
#
# Disc length: 827 seconds
#
# Revision: 1
# Processed by: cddbd v1.5.2PL0 Copyright (c) Steve Scherf et al.
# Submitted via: audiograbber 1.83.01
#
DISCID=1d033904
DTITLE=Nylon Beat - Satasen Laina [CDM)
DYEAR=1997
DGENRE=Pop
TTITLE0=Satasen Laina (Radio Edit)
TTITLE1=Satasen Laina (Satasen Remix)
TTITLE2=Satasen Laina (Satasen Remix Instrumental)
TTITLE3=Satasen Laina (Vocals Acapella)
EXTD=TR.
EXTT0=
EXTT1=
EXTT2=
EXTT3=
PLAYORDER=
